<?xml version="1.0" encoding="windows-1252"?>
<!-- Generator: Adobe Illustrator 19.1.0, SVG Export Plug-In . SVG Version: 6.00 Build 0)  -->
<svg version="1.1" id="Capa_1" xmlns="http://www.w3.org/2000/svg" xmlns:xlink="http://www.w3.org/1999/xlink" x="0px" y="0px" viewBox="0 0 64.002 64.002" style="enable-background:new 0 0 64.002 64.002;" xml:space="preserve">
<g>
	<g>
	</g>
	<g>
	</g>
	<g>
	</g>
	<g>
	</g>
	<g>
	</g>
	<g>
	</g>
	<g>
	</g>
	<g>
	</g>
	<g>
	</g>
	<g>
	</g>
	<g>
	</g>
	<g>
	</g>
	<g>
	</g>
	<g>
	</g>
	<g>
	</g>
</g>
<g>
	<path d="M54.628,9.375c-6.044-6.045-14.08-9.374-22.627-9.374c-8.548,0-16.583,3.329-22.627,9.374C3.329,15.419,0,23.454,0,32.001   s3.329,16.582,9.374,22.626c6.044,6.045,14.079,9.374,22.627,9.374c8.547,0,16.583-3.329,22.627-9.374   c6.045-6.044,9.374-14.079,9.374-22.626S60.673,15.419,54.628,9.375z M53.214,53.213c-5.666,5.667-13.2,8.788-21.213,8.788   c-8.014,0-15.547-3.121-21.213-8.788C5.121,47.547,2,40.014,2,32.001s3.121-15.546,8.788-21.212   c5.666-5.667,13.199-8.788,21.213-8.788c8.013,0,15.547,3.121,21.213,8.788c5.667,5.666,8.788,13.199,8.788,21.212   S58.881,47.547,53.214,53.213z"/>
	<path d="M41,17.001h-2v12h-8.999l-6.4-12H21v12h-4v2h4v4h-4v2h4v12h2v-12h9.001l6.4,12H41v-12h4v-2h-4v-4h4v-2h-4V17.001z    M23,20.126l4.734,8.875H23V20.126z M23,35.001v-4h5.801l2.133,4H23z M39,45.876l-4.732-8.875H39V45.876z M39,35.001h-5.799   l-2.133-4H39V35.001z"/>
</g>
<g>
</g>
<g>
</g>
<g>
</g>
<g>
</g>
<g>
</g>
<g>
</g>
<g>
</g>
<g>
</g>
<g>
</g>
<g>
</g>
<g>
</g>
<g>
</g>
<g>
</g>
<g>
</g>
<g>
</g>
</svg>